<svg width="32" height="32" viewBox="0 0 32 32" fill="none" xmlns="http://www.w3.org/2000/svg">
<circle cx="16" cy="16" r="15.5" fill="black" fill-opacity="0.98" stroke="#E5D7C5"/>
<path d="M20 10L23 14H25C26.11 14 27 14.89 27 16V19H25C25 19.7956 24.6839 20.5587 24.1213 21.1213C23.5587 21.6839 22.7956 22 22 22C21.2044 22 20.4413 21.6839 19.8787 21.1213C19.3161 20.5587 19 19.7956 19 19H13C13 19.7956 12.6839 20.5587 12.1213 21.1213C11.5587 21.6839 10.7956 22 10 22C9.20435 22 8.44129 21.6839 7.87868 21.1213C7.31607 20.5587 7 19.7956 7 19H5V16C5 14.89 5.89 14 7 14L10 10H20ZM14.5 11.5H10.75L8.86 14H14.5V11.5ZM16 11.5V14H21.14L19.25 11.5H16ZM10 17.5C9.60218 17.5 9.22064 17.658 8.93934 17.9393C8.65804 18.2206 8.5 18.6022 8.5 19C8.5 19.3978 8.65804 19.7794 8.93934 20.0607C9.22064 20.342 9.60218 20.5 10 20.5C10.3978 20.5 10.7794 20.342 11.0607 20.0607C11.342 19.7794 11.5 19.3978 11.5 19C11.5 18.6022 11.342 18.2206 11.0607 17.9393C10.7794 17.658 10.3978 17.5 10 17.5ZM22 17.5C21.6022 17.5 21.2206 17.658 20.9393 17.9393C20.658 18.2206 20.5 18.6022 20.5 19C20.5 19.3978 20.658 19.7794 20.9393 20.0607C21.2206 20.342 21.6022 20.5 22 20.5C22.3978 20.5 22.7794 20.342 23.0607 20.0607C23.342 19.7794 23.5 19.3978 23.5 19C23.5 18.6022 23.342 18.2206 23.0607 17.9393C22.7794 17.658 22.3978 17.5 22 17.5Z" fill="#E5D7C5"/>
</svg>
