<svg width="25" height="24" viewBox="0 0 25 24" fill="none" xmlns="http://www.w3.org/2000/svg">
<path d="M9.80999 6.71002C9.71729 6.80254 9.64374 6.91242 9.59356 7.0334C9.54338 7.15437 9.51755 7.28405 9.51755 7.41502C9.51755 7.54599 9.54338 7.67567 9.59356 7.79665C9.64374 7.91762 9.71729 8.02751 9.80999 8.12002L13.69 12L9.80999 15.88C9.62301 16.067 9.51797 16.3206 9.51797 16.585C9.51797 16.8494 9.62301 17.103 9.80999 17.29C9.99697 17.477 10.2506 17.582 10.515 17.582C10.7794 17.582 11.033 17.477 11.22 17.29L15.81 12.7C15.9027 12.6075 15.9762 12.4976 16.0264 12.3766C16.0766 12.2557 16.1024 12.126 16.1024 11.995C16.1024 11.8641 16.0766 11.7344 16.0264 11.6134C15.9762 11.4924 15.9027 11.3825 15.81 11.29L11.22 6.70002C10.84 6.32002 10.2 6.32002 9.80999 6.71002Z" fill="black" fill-opacity="0.98"/>
</svg>
