<svg width="24" height="24" viewBox="0 0 24 24" fill="none" xmlns="http://www.w3.org/2000/svg">
<path d="M10.9395 12.0009L4.71897 5.78195C4.64924 5.71222 4.59392 5.62943 4.55619 5.53832C4.51845 5.44721 4.49902 5.34956 4.49902 5.25095C4.49902 5.15233 4.51845 5.05468 4.55619 4.96357C4.59392 4.87246 4.64924 4.78968 4.71897 4.71995C4.7887 4.65022 4.87149 4.5949 4.9626 4.55716C5.0537 4.51942 5.15135 4.5 5.24997 4.5C5.34859 4.5 5.44624 4.51942 5.53735 4.55716C5.62846 4.5949 5.71124 4.65022 5.78097 4.71995L12 10.9404L18.219 4.71995C18.3598 4.57912 18.5508 4.5 18.75 4.5C18.9491 4.5 19.1401 4.57912 19.281 4.71995C19.4218 4.86078 19.5009 5.05178 19.5009 5.25095C19.5009 5.45011 19.4218 5.64112 19.281 5.78195L13.0605 12.0009L19.281 18.2199C19.4218 18.3608 19.5009 18.5518 19.5009 18.7509C19.5009 18.9501 19.4218 19.1411 19.281 19.2819C19.1401 19.4228 18.9491 19.5019 18.75 19.5019C18.5508 19.5019 18.3598 19.4228 18.219 19.2819L12 13.0614L5.78097 19.2819C5.64014 19.4228 5.44913 19.5019 5.24997 19.5019C5.05081 19.5019 4.8598 19.4228 4.71897 19.2819C4.57814 19.1411 4.49902 18.9501 4.49902 18.7509C4.49902 18.5518 4.57814 18.3608 4.71897 18.2199L10.9395 12.0009Z" fill="white"/>
</svg>
