<svg width="64" height="64" viewBox="0 0 64 64" fill="none" xmlns="http://www.w3.org/2000/svg">
<path fill-rule="evenodd" clip-rule="evenodd" d="M14.1653 28.6987C21.9467 14.8987 25.8373 8 32 8C38.16 8 42.0533 14.8987 49.8347 28.6987L50.8053 30.416C57.272 41.8827 60.5067 47.616 57.584 51.808C54.6613 56 47.4293 56 32.9707 56H31.0293C16.5707 56 9.33868 56 6.41601 51.808C3.49334 47.616 6.72801 41.8827 13.1947 30.416L14.1653 28.6987ZM32 19.3333C32.5304 19.3333 33.0391 19.544 33.4142 19.9191C33.7893 20.2942 34 20.8029 34 21.3333V34.6667C34 35.1971 33.7893 35.7058 33.4142 36.0809C33.0391 36.456 32.5304 36.6667 32 36.6667C31.4696 36.6667 30.9609 36.456 30.5858 36.0809C30.2107 35.7058 30 35.1971 30 34.6667V21.3333C30 20.8029 30.2107 20.2942 30.5858 19.9191C30.9609 19.544 31.4696 19.3333 32 19.3333ZM32 45.3333C32.7073 45.3333 33.3855 45.0524 33.8856 44.5523C34.3857 44.0522 34.6667 43.3739 34.6667 42.6667C34.6667 41.9594 34.3857 41.2811 33.8856 40.7811C33.3855 40.281 32.7073 40 32 40C31.2928 40 30.6145 40.281 30.1144 40.7811C29.6143 41.2811 29.3333 41.9594 29.3333 42.6667C29.3333 43.3739 29.6143 44.0522 30.1144 44.5523C30.6145 45.0524 31.2928 45.3333 32 45.3333Z" fill="#E23F1B"/>
</svg>
