<svg width="25" height="24" viewBox="0 0 25 24" fill="none" xmlns="http://www.w3.org/2000/svg">
<g clip-path="url(#clip0_279_438)">
<path d="M24.2025 11.745C23.3435 9.50312 21.8458 7.56085 19.8937 6.1575L23.4956 2.5575L22.4354 1.5L2.44052 21.4425L3.5008 22.5L7.33584 18.6825C9.0479 19.6769 10.9871 20.2166 12.9681 20.25C15.4191 20.1581 17.7894 19.3518 19.786 17.9309C21.7826 16.51 23.3181 14.5368 24.2025 12.255C24.2622 12.0902 24.2622 11.9098 24.2025 11.745ZM12.9681 16.875C11.9316 16.8745 10.9224 16.5434 10.088 15.93L11.4641 14.5725C12.0347 14.8843 12.6913 15.0032 13.3354 14.9113C13.9795 14.8194 14.5763 14.5217 15.0363 14.0629C15.4964 13.604 15.7949 13.0087 15.887 12.3663C15.9792 11.724 15.86 11.0691 15.5473 10.5L16.9084 9.1425C17.4381 9.8682 17.7564 10.7259 17.8279 11.6207C17.8994 12.5155 17.7214 13.4126 17.3137 14.2129C16.9059 15.0131 16.2842 15.6853 15.5172 16.1551C14.7503 16.6249 13.8681 16.8741 12.9681 16.875ZM4.343 16.3575L8.10284 12.6075C8.08357 12.4056 8.07603 12.2028 8.08028 12C8.08227 10.7077 8.59787 9.46886 9.51408 8.55505C10.4303 7.64123 11.6724 7.12698 12.9681 7.125C13.1666 7.12631 13.365 7.13883 13.5621 7.1625L16.4046 4.335C15.2983 3.95616 14.1377 3.7586 12.9681 3.75C10.5171 3.84193 8.14675 4.64817 6.15013 6.06906C4.15352 7.48996 2.61811 9.46324 1.73367 11.745C1.67394 11.9098 1.67394 12.0902 1.73367 12.255C2.31198 13.7866 3.20018 15.1831 4.343 16.3575Z" fill="black" fill-opacity="0.3"/>
</g>
<defs>
<clipPath id="clip0_279_438">
<rect width="24.063" height="24" fill="white" transform="translate(0.936584)"/>
</clipPath>
</defs>
</svg>
