<svg width="48" height="48" viewBox="0 0 48 48" fill="none" xmlns="http://www.w3.org/2000/svg">
<path d="M42 24V10C42 8.93913 41.5786 7.92172 40.8284 7.17157C40.0783 6.42143 39.0609 6 38 6H10C8.93913 6 7.92172 6.42143 7.17157 7.17157C6.42143 7.92172 6 8.93913 6 10V32M42 24V38C42 39.0609 41.5786 40.0783 40.8284 40.8284C40.0783 41.5786 39.0609 42 38 42H32M42 24C29.116 24 21.79 27.97 17.89 32.486M6 32V38C6 39.0609 6.42143 40.0783 7.17157 40.8284C7.92172 41.5786 8.93913 42 10 42H32M6 32C8.806 31.532 13.274 31.414 17.89 32.486M32 42C28.592 36.464 23.146 33.704 17.89 32.486M17 14C16 14 14 14.6 14 17C14 19.4 16 20 17 20C18 20 20 19.4 20 17C20 14.6 18 14 17 14Z" stroke="#E5D7C5" stroke-width="2" stroke-linecap="round" stroke-linejoin="round"/>
</svg>
