<svg width="24" height="24" viewBox="0 0 24 24" fill="none" xmlns="http://www.w3.org/2000/svg">
<path d="M7.69199 11.8969L9.10199 12.3669C10.034 12.6769 10.499 12.8329 10.833 13.1669C11.167 13.5009 11.323 13.9669 11.633 14.8969L12.103 16.3069C12.887 18.6609 13.279 19.8369 14 19.8369C14.72 19.8369 15.113 18.6609 15.897 16.3069L18.735 7.7949C19.287 6.1389 19.563 5.3109 19.126 4.8739C18.689 4.4369 17.861 4.7129 16.206 5.2639L7.69099 8.1039C5.33999 8.8869 4.16199 9.2789 4.16199 9.9999C4.16199 10.7199 5.33899 11.1129 7.69199 11.8969Z" fill="#E5D7C5"/>
<path d="M7.69199 11.8969L9.10199 12.3669C10.034 12.6769 10.499 12.8329 10.833 13.1669C11.167 13.5009 11.323 13.9669 11.633 14.8969L12.103 16.3069C12.887 18.6609 13.279 19.8369 14 19.8369C14.72 19.8369 15.113 18.6609 15.897 16.3069L18.735 7.7949C19.287 6.1389 19.563 5.3109 19.126 4.8739C18.689 4.4369 17.861 4.7129 16.206 5.2639L7.69099 8.1039C5.33999 8.8869 4.16199 9.2789 4.16199 9.9999C4.16199 10.7199 5.33899 11.1129 7.69199 11.8969Z" fill="#E5D7C5"/>
<path d="M9.52602 13.8418L7.46402 13.1548C7.31973 13.1067 7.16637 13.0922 7.01561 13.1123C6.86485 13.1324 6.72066 13.1866 6.59402 13.2708L5.50402 13.9968C5.37499 14.0828 5.27372 14.2044 5.21253 14.3469C5.15133 14.4893 5.13286 14.6465 5.15934 14.7993C5.18583 14.952 5.25613 15.0938 5.36171 15.2074C5.46728 15.3209 5.60358 15.4013 5.75402 15.4388L7.70902 15.9268C7.79699 15.9488 7.87734 15.9943 7.94146 16.0584C8.00558 16.1225 8.05105 16.2029 8.07302 16.2908L8.56102 18.2458C8.59853 18.3963 8.67895 18.5326 8.7925 18.6381C8.90605 18.7437 9.04782 18.814 9.20059 18.8405C9.35336 18.867 9.51053 18.8485 9.65299 18.7873C9.79544 18.7261 9.91705 18.6249 10.003 18.4958L10.729 17.4058C10.8132 17.2792 10.8675 17.135 10.8876 16.9842C10.9077 16.8335 10.8931 16.6801 10.845 16.5358L10.158 14.4738C10.1089 14.3267 10.0262 14.193 9.91656 14.0833C9.80687 13.9736 9.67316 13.8909 9.52602 13.8418Z" fill="#E5D7C5"/>
</svg>
