<svg width="32" height="32" viewBox="0 0 32 32" fill="none" xmlns="http://www.w3.org/2000/svg">
<g id="material-symbols:refresh">
<path id="Vector" d="M16.0002 26.6663C13.0224 26.6663 10.5002 25.633 8.4335 23.5663C6.36683 21.4997 5.3335 18.9775 5.3335 15.9997C5.3335 13.0219 6.36683 10.4997 8.4335 8.43301C10.5002 6.36634 13.0224 5.33301 16.0002 5.33301C17.5335 5.33301 19.0002 5.64945 20.4002 6.28234C21.8002 6.91523 23.0002 7.82101 24.0002 8.99967V5.33301H26.6668V14.6663H17.3335V11.9997H22.9335C22.2224 10.7552 21.2504 9.77745 20.0175 9.06634C18.7846 8.35523 17.4455 7.99967 16.0002 7.99967C13.7779 7.99967 11.8891 8.77745 10.3335 10.333C8.77794 11.8886 8.00016 13.7775 8.00016 15.9997C8.00016 18.2219 8.77794 20.1108 10.3335 21.6663C11.8891 23.2219 13.7779 23.9997 16.0002 23.9997C17.7113 23.9997 19.2557 23.5108 20.6335 22.533C22.0113 21.5552 22.9779 20.2663 23.5335 18.6663H26.3335C25.7113 21.0219 24.4446 22.9441 22.5335 24.433C20.6224 25.9219 18.4446 26.6663 16.0002 26.6663Z" fill="rgba(229, 215, 197, 1)"/>
</g>
</svg>
