<svg width="20" height="22" viewBox="0 0 20 22" fill="none" xmlns="http://www.w3.org/2000/svg">
<path d="M18.1584 21.0894C17.9537 21.1645 17.735 21.1938 17.5177 21.1751C17.3004 21.1564 17.0899 21.0901 16.901 20.9811C16.7525 20.8954 16.6195 20.7852 16.5078 20.6552L11.2747 14.7221C11.2228 14.6632 11.1907 14.5896 11.1828 14.5115C11.175 14.4335 11.1918 14.3549 11.2309 14.2869L14.6121 8.41337C14.6635 8.32438 14.6962 8.22575 14.708 8.12361C14.7197 8.02147 14.7104 7.918 14.6805 7.81963C14.6505 7.72126 14.6007 7.63009 14.5341 7.55178C14.4675 7.47347 14.3855 7.4097 14.2932 7.36442C14.1175 7.28294 13.9176 7.27082 13.7334 7.33048C13.5492 7.39014 13.3944 7.51718 13.2999 7.68616L9.93236 13.5361C9.89322 13.6041 9.83374 13.6581 9.7623 13.6906C9.69086 13.723 9.61104 13.7322 9.53409 13.7168L1.77536 12.1712C1.47575 12.1153 1.20027 11.9695 0.985605 11.7531C0.770945 11.5367 0.627289 11.2601 0.573766 10.9601C0.520244 10.66 0.559396 10.3508 0.686008 10.0735C0.812619 9.79629 1.02068 9.5642 1.28249 9.40816L16.9376 0.246871C17.1664 0.110936 17.4273 0.0383282 17.6934 0.0365007C17.9596 0.0346732 18.2214 0.10369 18.4521 0.236472C18.6827 0.369252 18.8739 0.561014 19.006 0.792079C19.1381 1.02314 19.2063 1.28519 19.2037 1.55133L19.1483 19.6893C19.1476 19.9962 19.0521 20.2955 18.875 20.5461C18.6978 20.7967 18.4475 20.9864 18.1584 21.0894Z" fill="rgba(229, 215, 197, 1)"/>
</svg>
