<svg width="50" height="50" viewBox="0 0 50 50" fill="none" xmlns="http://www.w3.org/2000/svg">
<path d="M25.0005 28.4003C28.0068 28.4003 30.89 27.2061 33.0158 25.0803C35.1416 22.9545 36.3359 20.0712 36.3359 17.0649C36.3359 14.0586 35.1416 11.1754 33.0158 9.04956C30.89 6.92376 28.0068 5.72949 25.0005 5.72949C21.9941 5.72949 19.1109 6.92376 16.9851 9.04956C14.8593 11.1754 13.665 14.0586 13.665 17.0649C13.665 20.0712 14.8593 22.9545 16.9851 25.0803C19.1109 27.2061 21.9941 28.4003 25.0005 28.4003ZM25.0005 28.4003V44.2712V28.4003Z" fill="black" fill-opacity="0.98"/>
<path d="M25.0005 28.4003C28.0068 28.4003 30.89 27.2061 33.0158 25.0803C35.1416 22.9545 36.3359 20.0712 36.3359 17.0649C36.3359 14.0586 35.1416 11.1754 33.0158 9.04956C30.89 6.92376 28.0068 5.72949 25.0005 5.72949C21.9941 5.72949 19.1109 6.92376 16.9851 9.04956C14.8593 11.1754 13.665 14.0586 13.665 17.0649C13.665 20.0712 14.8593 22.9545 16.9851 25.0803C19.1109 27.2061 21.9941 28.4003 25.0005 28.4003ZM25.0005 28.4003V44.2712" stroke="#E5D7C5" stroke-width="3.125" stroke-linecap="round" stroke-linejoin="round"/>
</svg>
