<svg width="24" height="24" viewBox="0 0 24 24" fill="none" xmlns="http://www.w3.org/2000/svg">
<path d="M11.2637 18.6C11.4184 18.8391 11.6902 18.9984 11.9996 18.9984C12.309 18.9984 12.5809 18.8391 12.7402 18.6L17.9059 10.6219C18.5996 9.54844 19.0027 8.36719 19.0027 6.99844C18.998 3.04219 15.8902 0 11.9996 0C8.10898 0 5.00117 3.04219 5.00117 6.99844C5.00117 8.36719 5.4043 9.54844 6.09805 10.6219L11.2637 18.6ZM11.9996 3C14.2074 3 15.998 4.79063 15.998 6.99844C15.998 9.20625 14.2074 10.9969 11.9996 10.9969C9.7918 10.9969 8.00117 9.20625 8.00117 6.99844C8.00117 4.79063 9.7918 3 11.9996 3ZM17.1277 15.1641L11.9996 21.9984L6.87148 15.1641C5.11836 16.0828 3.99805 17.4562 3.99805 18.9984C3.99805 21.7594 7.5793 24 11.9996 24C16.4199 24 20.0012 21.7594 20.0012 18.9984C20.0012 17.4562 18.8809 16.0828 17.1277 15.1641Z" fill="black" fill-opacity="0.98"/>
</svg>
