<svg width="28" height="28" viewBox="0 0 28 28" fill="none" xmlns="http://www.w3.org/2000/svg">
<path d="M14 22.75C15.1491 22.75 16.2869 22.5237 17.3485 22.0839C18.4101 21.6442 19.3747 20.9997 20.1872 20.1872C20.9997 19.3747 21.6442 18.4101 22.0839 17.3485C22.5237 16.2869 22.75 15.1491 22.75 14M14 22.75C11.6794 22.75 9.45376 21.8281 7.81282 20.1872C6.17187 18.5462 5.25 16.3206 5.25 14M14 22.75V25.25M22.75 14C22.75 12.8509 22.5237 11.7131 22.0839 10.6515C21.6442 9.58992 20.9997 8.62533 20.1872 7.81282C19.3747 7.0003 18.4101 6.35578 17.3485 5.91605C16.2869 5.47633 15.1491 5.25 14 5.25M22.75 14H25.25M14 5.25C11.6794 5.25 9.45376 6.17187 7.81282 7.81282C6.17187 9.45376 5.25 11.6794 5.25 14M14 5.25V2.75M5.25 14H2.75" stroke="rgba(229, 215, 197, 1)" stroke-width="5" stroke-linecap="round" stroke-linejoin="round"/>
</svg>
