<svg width="16" height="24" viewBox="0 0 16 24" fill="none" xmlns="http://www.w3.org/2000/svg">
<path d="M7.2637 18.6C7.4184 18.8391 7.6902 18.9984 7.9996 18.9984C8.309 18.9984 8.5809 18.8391 8.7402 18.6L13.9059 10.6219C14.5996 9.54844 15.0027 8.36719 15.0027 6.99844C14.998 3.04219 11.8902 0 7.9996 0C4.10898 0 1.00117 3.04219 1.00117 6.99844C1.00117 8.36719 1.4043 9.54844 2.09805 10.6219L7.2637 18.6ZM7.9996 3C10.2074 3 11.998 4.79063 11.998 6.99844C11.998 9.20625 10.2074 10.9969 7.9996 10.9969C5.7918 10.9969 4.00117 9.20625 4.00117 6.99844C4.00117 4.79063 5.7918 3 7.9996 3ZM13.1277 15.1641L7.9996 21.9984L2.87148 15.1641C1.11836 16.0828 -0.00195312 17.4562 -0.00195312 18.9984C-0.00195312 21.7594 3.5793 24 7.9996 24C12.4199 24 16.0012 21.7594 16.0012 18.9984C16.0012 17.4562 14.8809 16.0828 13.1277 15.1641Z" fill="#E5D7C5"/>
</svg>
