<svg width="32" height="32" viewBox="0 0 32 32" fill="none" xmlns="http://www.w3.org/2000/svg">
<circle cx="16" cy="16" r="15.5" stroke="#E5D7C5"/>
<path d="M24.6287 19.9989C24.5509 19.9052 24.4745 19.8114 24.3995 19.7209C23.3683 18.4736 22.7444 17.7208 22.7444 14.1897C22.7444 12.3616 22.307 10.8616 21.445 9.73656C20.8094 8.90547 19.9501 8.275 18.8176 7.80906C18.8031 7.80096 18.7901 7.79032 18.7792 7.77766C18.3719 6.41359 17.2572 5.5 16 5.5C14.7428 5.5 13.6286 6.41359 13.2212 7.77625C13.2104 7.78847 13.1975 7.79877 13.1833 7.80672C10.5405 8.89469 9.25608 10.982 9.25608 14.1883C9.25608 17.7208 8.63311 18.4736 7.60092 19.7195C7.52592 19.81 7.44952 19.9019 7.37171 19.9975C7.17071 20.2399 7.04336 20.5348 7.00473 20.8473C6.9661 21.1598 7.01781 21.4769 7.15374 21.7609C7.44296 22.3703 8.05936 22.7486 8.76296 22.7486H23.2422C23.9425 22.7486 24.5547 22.3708 24.8448 21.7642C24.9813 21.4801 25.0335 21.1628 24.9952 20.8499C24.9569 20.537 24.8298 20.2417 24.6287 19.9989ZM16 26.5C16.6773 26.4995 17.3419 26.3156 17.9233 25.9679C18.5046 25.6202 18.9809 25.1217 19.3019 24.5252C19.317 24.4966 19.3244 24.4646 19.3235 24.4322C19.3226 24.3999 19.3134 24.3684 19.2967 24.3407C19.28 24.313 19.2564 24.2901 19.2282 24.2742C19.2001 24.2583 19.1683 24.25 19.1359 24.25H12.865C12.8326 24.2499 12.8008 24.2582 12.7725 24.274C12.7443 24.2899 12.7206 24.3128 12.7039 24.3405C12.6871 24.3682 12.6778 24.3997 12.6769 24.4321C12.676 24.4645 12.6834 24.4965 12.6986 24.5252C13.0195 25.1216 13.4958 25.6201 14.077 25.9678C14.6582 26.3155 15.3227 26.4994 16 26.5Z" fill="#E5D7C5"/>
</svg>
