<svg width="25" height="24" viewBox="0 0 25 24" fill="none" xmlns="http://www.w3.org/2000/svg">
<path d="M21.1286 15.9989C21.0508 15.9052 20.9744 15.8114 20.8994 15.7209C19.8682 14.4736 19.2443 13.7208 19.2443 10.1897C19.2443 8.36156 18.8069 6.86156 17.9449 5.73656C17.3093 4.90547 16.45 4.275 15.3175 3.80906C15.303 3.80096 15.29 3.79032 15.2791 3.77766C14.8718 2.41359 13.7571 1.5 12.4999 1.5C11.2427 1.5 10.1285 2.41359 9.72114 3.77625C9.71029 3.78847 9.69746 3.79877 9.68318 3.80672C7.04036 4.89469 5.75599 6.98203 5.75599 10.1883C5.75599 13.7208 5.13302 14.4736 4.10083 15.7195C4.02583 15.81 3.94943 15.9019 3.87161 15.9975C3.67061 16.2399 3.54326 16.5348 3.50464 16.8473C3.46601 17.1598 3.51772 17.4769 3.65365 17.7609C3.94286 18.3703 4.55927 18.7486 5.26286 18.7486H19.7421C20.4424 18.7486 21.0546 18.3708 21.3447 17.7642C21.4813 17.4801 21.5335 17.1628 21.4952 16.8499C21.4569 16.537 21.3297 16.2417 21.1286 15.9989ZM12.4999 22.5C13.1773 22.4995 13.8418 22.3156 14.4232 21.9679C15.0045 21.6202 15.4809 21.1217 15.8018 20.5252C15.8169 20.4966 15.8244 20.4646 15.8234 20.4322C15.8225 20.3999 15.8133 20.3684 15.7966 20.3407C15.7799 20.313 15.7563 20.2901 15.7281 20.2742C15.7 20.2583 15.6682 20.25 15.6358 20.25H9.36489C9.33252 20.2499 9.30066 20.2582 9.27243 20.274C9.2442 20.2899 9.22055 20.3128 9.2038 20.3405C9.18704 20.3682 9.17774 20.3997 9.17681 20.4321C9.17588 20.4645 9.18335 20.4965 9.19849 20.5252C9.51936 21.1216 9.99567 21.6201 10.5769 21.9678C11.1581 22.3155 11.8226 22.4994 12.4999 22.5Z" fill="black" fill-opacity="1"/>
</svg>
