<svg width="26" height="30" viewBox="0 0 26 30" fill="none" xmlns="http://www.w3.org/2000/svg">
<g id="logos:paypal" clip-path="url(#clip0_501_2747)">
<path id="Vector" d="M21.5778 2.33513C20.1936 0.757445 17.6915 0.0810547 14.4906 0.0810547H5.20049C4.88379 0.0810664 4.57747 0.194055 4.33662 0.399707C4.09577 0.60536 3.93619 0.890185 3.88655 1.20298L0.0183389 25.7361C-0.0585486 26.2199 0.316054 26.658 0.806385 26.658H6.54175L7.98215 17.5218L7.93745 17.8079C8.04006 17.1621 8.59238 16.6858 9.24642 16.6858H11.9718C17.326 16.6858 21.5183 14.5111 22.7429 8.22009C22.7793 8.03403 22.8108 7.85294 22.838 7.67602C22.6834 7.59417 22.6834 7.59417 22.838 7.67602C23.2027 5.35082 22.8355 3.76807 21.5778 2.33513Z" fill="#27346A"/>
<path id="Vector_2" d="M10.1767 6.83841C10.3335 6.76375 10.505 6.72505 10.6787 6.72516H17.9619C18.8244 6.72516 19.6288 6.78129 20.3639 6.8996C20.5696 6.9324 20.7742 6.97155 20.9775 7.01701C21.2656 7.08059 21.5504 7.1584 21.8308 7.25016C22.1922 7.37086 22.5288 7.51142 22.8381 7.67602C23.2027 5.34993 22.8355 3.76807 21.5778 2.33513C20.1928 0.757445 17.6915 0.0810547 14.4906 0.0810547H5.1997C4.54556 0.0810547 3.98907 0.55728 3.88655 1.20298L0.0183394 25.7352C-0.058548 26.2198 0.316055 26.6573 0.805591 26.6573H6.54175L9.53013 7.70662C9.55951 7.52035 9.63371 7.34401 9.74635 7.19277C9.85898 7.04153 10.0067 6.91992 10.1767 6.83841Z" fill="#27346A"/>
<path id="Vector_3" d="M22.7428 8.21985C21.5181 14.5099 17.3259 16.6855 11.9717 16.6855H9.24547C8.59143 16.6855 8.03901 17.1618 7.93739 17.8076L6.14543 29.1674C6.07848 29.5908 6.4059 29.9744 6.83424 29.9744H11.669C11.946 29.9743 12.2138 29.8755 12.4244 29.6956C12.6349 29.5156 12.7744 29.2665 12.8176 28.993L12.8647 28.7466L13.776 22.9715L13.8347 22.6523C13.8779 22.3788 14.0174 22.1297 14.2279 21.9498C14.4385 21.7699 14.7063 21.671 14.9832 21.6709H15.7068C20.3903 21.6709 24.0575 19.7682 25.1292 14.2653C25.5765 11.9656 25.345 10.0456 24.1617 8.69697C23.8028 8.2885 23.3571 7.95115 22.8379 7.67578C22.8097 7.8536 22.7792 8.03379 22.7428 8.21985Z" fill="white"/>
<path id="Vector_4" d="M21.5563 7.16458C21.3654 7.10882 21.1726 7.05946 20.9784 7.01657C20.775 6.97185 20.5704 6.93296 20.3648 6.89994C19.6289 6.78084 18.8251 6.72461 17.9618 6.72461H10.6795C10.5057 6.72422 10.334 6.76324 10.1775 6.83875C10.0073 6.92002 9.85941 7.04155 9.74672 7.19283C9.63404 7.34412 9.55993 7.52059 9.53082 7.70696L7.98293 17.5213L7.93823 17.8074C8.04005 17.1616 8.59237 16.6853 9.24651 16.6853H11.9727C17.3268 16.6853 21.5191 14.5106 22.7437 8.21965C22.7802 8.03359 22.8108 7.85329 22.8389 7.67557C22.5288 7.51186 22.1931 7.37041 21.8316 7.25051C21.7404 7.22027 21.6487 7.19162 21.5564 7.16458" fill="white"/>
</g>
<defs>
<clipPath id="clip0_501_2747">
<rect width="25.44" height="30" fill="white"/>
</clipPath>
</defs>
</svg>
