<svg width="26" height="30" viewBox="0 0 26 30" fill="none" xmlns="http://www.w3.org/2000/svg">
<g id="logos:paypal" clip-path="url(#clip0_316_18865)">
<path id="Vector" d="M21.5773 2.33513C20.1931 0.757445 17.691 0.0810547 14.4901 0.0810547H5.2C4.8833 0.0810664 4.57699 0.194055 4.33614 0.399707C4.09529 0.60536 3.9357 0.890185 3.88606 1.20298L0.0178506 25.7361C-0.0590368 26.2199 0.315566 26.658 0.805897 26.658H6.54126L7.98166 17.5218L7.93696 17.8079C8.03957 17.1621 8.59189 16.6858 9.24593 16.6858H11.9714C17.3255 16.6858 21.5178 14.5111 22.7425 8.22009C22.7788 8.03403 22.8103 7.85294 22.8375 7.67602C22.683 7.59417 22.683 7.59417 22.8375 7.67602C23.2022 5.35082 22.835 3.76807 21.5773 2.33513Z" fill="#27346A"/>
<path id="Vector_2" d="M10.1762 6.83841C10.333 6.76375 10.5045 6.72505 10.6782 6.72516H17.9614C18.8239 6.72516 19.6283 6.78129 20.3634 6.8996C20.5691 6.9324 20.7737 6.97155 20.977 7.01701C21.2651 7.08059 21.5499 7.1584 21.8303 7.25016C22.1917 7.37086 22.5283 7.51142 22.8376 7.67602C23.2022 5.34993 22.835 3.76807 21.5773 2.33513C20.1924 0.757445 17.691 0.0810547 14.4901 0.0810547H5.19921C4.54507 0.0810547 3.98858 0.55728 3.88606 1.20298L0.0178511 25.7352C-0.0590363 26.2198 0.315566 26.6573 0.805103 26.6573H6.54126L9.52964 7.70662C9.55902 7.52035 9.63322 7.34401 9.74586 7.19277C9.85849 7.04153 10.0062 6.91992 10.1762 6.83841Z" fill="#27346A"/>
<path id="Vector_3" d="M22.7428 8.21985C21.5181 14.5099 17.3259 16.6855 11.9717 16.6855H9.24547C8.59143 16.6855 8.03901 17.1618 7.93739 17.8076L6.14543 29.1674C6.07848 29.5908 6.4059 29.9744 6.83424 29.9744H11.669C11.946 29.9743 12.2138 29.8755 12.4244 29.6956C12.6349 29.5156 12.7744 29.2665 12.8176 28.993L12.8647 28.7466L13.776 22.9715L13.8347 22.6523C13.8779 22.3788 14.0174 22.1297 14.2279 21.9498C14.4385 21.7699 14.7063 21.671 14.9832 21.6709H15.7068C20.3903 21.6709 24.0575 19.7682 25.1292 14.2653C25.5765 11.9656 25.345 10.0456 24.1617 8.69697C23.8028 8.2885 23.3571 7.95115 22.8379 7.67578C22.8097 7.8536 22.7792 8.03379 22.7428 8.21985Z" fill="#2790C3"/>
<path id="Vector_4" d="M21.5566 7.16458C21.3656 7.10882 21.1729 7.05946 20.9786 7.01657C20.7753 6.97185 20.5706 6.93296 20.365 6.89994C19.6291 6.78084 18.8253 6.72461 17.9621 6.72461H10.6797C10.5059 6.72422 10.3343 6.76324 10.1777 6.83875C10.0075 6.92002 9.85965 7.04155 9.74697 7.19283C9.63428 7.34412 9.56018 7.52059 9.53106 7.70696L7.98318 17.5213L7.93848 17.8074C8.0403 17.1616 8.59262 16.6853 9.24675 16.6853H11.973C17.3271 16.6853 21.5193 14.5106 22.744 8.21965C22.7804 8.03359 22.811 7.85329 22.8391 7.67557C22.529 7.51186 22.1933 7.37041 21.8319 7.25051C21.7406 7.22027 21.6489 7.19162 21.5567 7.16458" fill="#1F264F"/>
</g>
<defs>
<clipPath id="clip0_316_18865">
<rect width="25.44" height="30" fill="white"/>
</clipPath>
</defs>
</svg>
