<svg width="24" height="22" viewBox="0 0 24 22" fill="none" xmlns="http://www.w3.org/2000/svg">
<path d="M18.5 10.998H13.5V15.998C13.5 16.2633 13.3946 16.5176 13.2071 16.7052C13.0196 16.8927 12.7652 16.998 12.5 16.998C12.2348 16.998 11.9804 16.8927 11.7929 16.7052C11.6054 16.5176 11.5 16.2633 11.5 15.998V10.998H6.5C6.23478 10.998 5.98043 10.8927 5.79289 10.7052C5.60536 10.5176 5.5 10.2633 5.5 9.99805C5.5 9.73283 5.60536 9.47848 5.79289 9.29094C5.98043 9.1034 6.23478 8.99805 6.5 8.99805H11.5V3.99805C11.5 3.73283 11.6054 3.47848 11.7929 3.29094C11.9804 3.1034 12.2348 2.99805 12.5 2.99805C12.7652 2.99805 13.0196 3.1034 13.2071 3.29094C13.3946 3.47848 13.5 3.73283 13.5 3.99805V8.99805H18.5C18.7652 8.99805 19.0196 9.1034 19.2071 9.29094C19.3946 9.47848 19.5 9.73283 19.5 9.99805C19.5 10.2633 19.3946 10.5176 19.2071 10.7052C19.0196 10.8927 18.7652 10.998 18.5 10.998Z" fill="#E5D7C5"/>
</svg>
