<svg width="32" height="32" viewBox="0 0 32 32" fill="none" xmlns="http://www.w3.org/2000/svg">
<circle cx="16" cy="16" r="15.5" stroke="#E5D7C5"/>
<path d="M18.69 21.29C18.7827 21.1975 18.8562 21.0876 18.9064 20.9666C18.9566 20.8456 18.9824 20.7159 18.9824 20.585C18.9824 20.454 18.9566 20.3243 18.9064 20.2034C18.8562 20.0824 18.7827 19.9725 18.69 19.88L14.81 16L18.69 12.12C18.877 11.933 18.982 11.6794 18.982 11.415C18.982 11.1506 18.877 10.897 18.69 10.71C18.503 10.523 18.2494 10.418 17.985 10.418C17.7206 10.418 17.467 10.523 17.28 10.71L12.69 15.3C12.5973 15.3925 12.5237 15.5024 12.4735 15.6234C12.4234 15.7443 12.3975 15.874 12.3975 16.005C12.3975 16.1359 12.4234 16.2656 12.4735 16.3866C12.5237 16.5076 12.5973 16.6175 12.69 16.71L17.28 21.3C17.66 21.68 18.3 21.68 18.69 21.29Z" fill="#E5D7C5"/>
</svg>
