<svg width="236" height="236" viewBox="0 0 236 236" fill="none" xmlns="http://www.w3.org/2000/svg">
<rect width="236" height="236" rx="50" fill="#06921D" fill-opacity="0.3"/>
<path fill-rule="evenodd" clip-rule="evenodd" d="M118 206.5C129.622 206.5 141.13 204.211 151.867 199.763C162.605 195.316 172.361 188.797 180.579 180.579C188.797 172.361 195.316 162.605 199.763 151.867C204.211 141.13 206.5 129.622 206.5 118C206.5 106.378 204.211 94.8698 199.763 84.1325C195.316 73.3952 188.797 63.639 180.579 55.421C172.361 47.2031 162.605 40.6842 151.867 36.2367C141.13 31.7891 129.622 29.5 118 29.5C94.5283 29.5 72.018 38.8241 55.421 55.421C38.8241 72.018 29.5 94.5283 29.5 118C29.5 141.472 38.8241 163.982 55.421 180.579C72.018 197.176 94.5283 206.5 118 206.5ZM115.719 153.793L164.885 94.7933L149.781 82.2067L107.498 132.937L85.6188 111.048L71.7145 124.952L101.215 154.452L108.826 162.063L115.719 153.793Z" fill="#06921D"/>
</svg>
