<svg width="25" height="24" viewBox="0 0 25 24" fill="none" xmlns="http://www.w3.org/2000/svg">
<path d="M21.5 20C21.5 20.2652 21.3946 20.5196 21.2071 20.7071C21.0196 20.8946 20.7652 21 20.5 21H4.5C4.23478 21 3.98043 20.8946 3.79289 20.7071C3.60536 20.5196 3.5 20.2652 3.5 20V9.49001C3.49989 9.33762 3.53462 9.18722 3.60152 9.05031C3.66841 8.91339 3.76572 8.79357 3.886 8.70001L11.886 2.47701C12.0615 2.34045 12.2776 2.26631 12.5 2.26631C12.7224 2.26631 12.9385 2.34045 13.114 2.47701L21.114 8.70001C21.2343 8.79357 21.3316 8.91339 21.3985 9.05031C21.4654 9.18722 21.5001 9.33762 21.5 9.49001V20Z" fill="#E5D7C5"/>
</svg>
