<svg width="36" height="48" viewBox="0 0 36 48" fill="none" xmlns="http://www.w3.org/2000/svg">
<g clip-path="url(#clip0_67_1452)">
<path d="M35.75 17.875C35.75 26.0119 24.8574 40.4981 20.0814 46.475C18.9363 47.8994 16.8137 47.8994 15.6686 46.475C10.8926 40.4981 0 26.0119 0 17.875C0 8.00651 8.00651 0 17.875 0C27.7435 0 35.75 8.00651 35.75 17.875Z" fill="black"/>
<path fill-rule="evenodd" clip-rule="evenodd" d="M7 10.667C7 10.4018 7.10536 10.1474 7.29289 9.95989C7.48043 9.77235 7.73478 9.66699 8 9.66699H19C19.2652 9.66699 19.5196 9.77235 19.7071 9.95989C19.8946 10.1474 20 10.4018 20 10.667V15.667H24C24.6566 15.667 25.3068 15.7963 25.9134 16.0476C26.52 16.2989 27.0712 16.6672 27.5355 17.1315C27.9998 17.5958 28.3681 18.1469 28.6194 18.7536C28.8707 19.3602 29 20.0104 29 20.667V24.667C29.0001 25.3107 28.7932 25.9375 28.4098 26.4546C28.0265 26.9718 27.487 27.3519 26.871 27.539C26.6876 28.144 26.3178 28.6756 25.8143 29.0579C25.3108 29.4402 24.6994 29.6537 24.0674 29.6679C23.4353 29.6821 22.815 29.4963 22.2948 29.1369C21.7747 28.7776 21.3814 28.2631 21.171 27.667H14.83C14.6196 28.2631 14.2263 28.7776 13.7062 29.1369C13.186 29.4963 12.5657 29.6821 11.9336 29.6679C11.3016 29.6537 10.6902 29.4402 10.1867 29.0579C9.68324 28.6756 9.3134 28.144 9.13 27.539C8.51384 27.3521 7.97412 26.972 7.59057 26.4549C7.20701 25.9377 6.99996 25.3109 7 24.667V20.667H13C13.2652 20.667 13.5196 20.5616 13.7071 20.3741C13.8946 20.1866 14 19.9322 14 19.667C14 19.4018 13.8946 19.1474 13.7071 18.9599C13.5196 18.7723 13.2652 18.667 13 18.667H7V16.667H11C11.2652 16.667 11.5196 16.5616 11.7071 16.3741C11.8946 16.1866 12 15.9322 12 15.667C12 15.4018 11.8946 15.1474 11.7071 14.9599C11.5196 14.7723 11.2652 14.667 11 14.667H7V10.667ZM20 25.667H21.171C21.3687 25.1074 21.7279 24.6191 22.2032 24.2637C22.6785 23.9084 23.2485 23.7019 23.8411 23.6706C24.4337 23.6392 25.0223 23.7843 25.5325 24.0875C26.0426 24.3907 26.4513 24.8384 26.707 25.374C26.8 25.2813 26.8738 25.1711 26.924 25.0497C26.9743 24.9284 27.0001 24.7983 27 24.667V20.667C27 19.8713 26.6839 19.1083 26.1213 18.5457C25.5587 17.9831 24.7956 17.667 24 17.667H20V25.667ZM13 26.667C13 26.4018 12.8946 26.1474 12.7071 25.9599C12.5196 25.7723 12.2652 25.667 12 25.667C11.7348 25.667 11.4804 25.7723 11.2929 25.9599C11.1054 26.1474 11 26.4018 11 26.667C11 26.9322 11.1054 27.1866 11.2929 27.3741C11.4804 27.5616 11.7348 27.667 12 27.667C12.2652 27.667 12.5196 27.5616 12.7071 27.3741C12.8946 27.1866 13 26.9322 13 26.667ZM23.293 25.96C23.1999 26.0526 23.126 26.1628 23.0757 26.2842C23.0254 26.4055 22.9997 26.5356 23 26.667C23 26.8983 23.0801 27.1226 23.2269 27.3014C23.3736 27.4803 23.5778 27.6028 23.8047 27.648C24.0316 27.6931 24.2672 27.6582 24.4712 27.5492C24.6753 27.4402 24.8352 27.2638 24.9238 27.0501C25.0124 26.8363 25.0241 26.5985 24.957 26.3771C24.8899 26.1557 24.7481 25.9644 24.5557 25.8358C24.3634 25.7073 24.1324 25.6494 23.9021 25.672C23.6719 25.6946 23.4566 25.7964 23.293 25.96Z" fill="#E5D7C5"/>
</g>
<defs>
<clipPath id="clip0_67_1452">
<rect width="35.75" height="47.6667" fill="white"/>
</clipPath>
</defs>
</svg>
