<svg width="28" height="22" viewBox="0 0 28 22" fill="none" xmlns="http://www.w3.org/2000/svg">
<g id="logos:mastercard" clip-path="url(#clip0_316_18870)">
<path id="Vector" d="M5.01898 21.3446V19.9248C5.01898 19.3805 4.68763 19.0256 4.11967 19.0256C3.83574 19.0256 3.5281 19.1202 3.3151 19.4279C3.14953 19.1676 2.91293 19.0256 2.55797 19.0256C2.32125 19.0256 2.08475 19.0965 1.89536 19.3569V19.0729H1.39844V21.3446H1.89536V20.0904C1.89536 19.6882 2.10836 19.4988 2.43972 19.4988C2.77086 19.4988 2.93664 19.7118 2.93664 20.0904V21.3446H3.43357V20.0904C3.43357 19.6882 3.67006 19.4988 3.97771 19.4988C4.30906 19.4988 4.47463 19.7118 4.47463 20.0904V21.3446H5.01898ZM12.3781 19.0729H11.5737V18.3867H11.0767V19.0729H10.6271V19.5224H11.0766V20.5637C11.0766 21.0843 11.2896 21.3919 11.8576 21.3919C12.0706 21.3919 12.3071 21.3209 12.4729 21.2263L12.3308 20.8003C12.1888 20.895 12.0233 20.9187 11.9049 20.9187C11.6683 20.9187 11.5737 20.7767 11.5737 20.54V19.5224H12.3781V19.0729ZM16.5902 19.0255C16.3063 19.0255 16.117 19.1676 15.9987 19.3569V19.0729H15.5017V21.3446H15.9987V20.0668C15.9987 19.6882 16.1642 19.4752 16.4719 19.4752C16.5665 19.4752 16.6849 19.4989 16.7795 19.5225L16.9215 19.0493C16.8268 19.0256 16.6849 19.0256 16.5902 19.0256M10.2248 19.2623C9.98813 19.0966 9.65688 19.0257 9.30192 19.0257C8.73406 19.0257 8.3555 19.3096 8.3555 19.7592C8.3555 20.1379 8.63942 20.3508 9.13635 20.4218L9.37295 20.4456C9.63327 20.4928 9.77524 20.5638 9.77524 20.6822C9.77524 20.8477 9.58595 20.9661 9.2546 20.9661C8.92335 20.9661 8.66303 20.8477 8.49735 20.7295L8.26075 21.1081C8.52107 21.2973 8.87603 21.392 9.23088 21.392C9.89349 21.392 10.2722 21.0845 10.2722 20.6585C10.2722 20.2562 9.96452 20.0432 9.4912 19.9722L9.2546 19.9485C9.0416 19.9248 8.87603 19.8776 8.87603 19.7356C8.87603 19.57 9.0416 19.4753 9.30192 19.4753C9.58595 19.4753 9.86988 19.5936 10.0118 19.6646L10.2248 19.2623ZM23.4289 19.0257C23.1449 19.0257 22.9556 19.1677 22.8373 19.357V19.073H22.3403V21.3447H22.8373V20.0669C22.8373 19.6883 23.0029 19.4753 23.3105 19.4753C23.4052 19.4753 23.5236 19.499 23.6182 19.5226L23.7602 19.0494C23.6655 19.0257 23.5236 19.0257 23.4289 19.0257ZM17.0871 20.2089C17.0871 20.8951 17.5604 21.392 18.294 21.392C18.6252 21.392 18.8619 21.3211 19.0985 21.1318L18.8619 20.7295C18.6726 20.8715 18.4833 20.9424 18.2703 20.9424C17.868 20.9424 17.5841 20.6585 17.5841 20.2089C17.5841 19.783 17.868 19.4989 18.2703 19.4753C18.4833 19.4753 18.6726 19.5462 18.8619 19.6883L19.0985 19.286C18.8619 19.0966 18.6252 19.0257 18.294 19.0257C17.5604 19.0257 17.0871 19.5226 17.0871 20.2089ZM21.6778 20.2089V19.073H21.1809V19.357C21.0152 19.1441 20.7786 19.0257 20.471 19.0257C19.8321 19.0257 19.3352 19.5226 19.3352 20.2089C19.3352 20.8951 19.8321 21.392 20.471 21.392C20.8022 21.392 21.0389 21.2737 21.1809 21.0607V21.3447H21.6778V20.2089ZM19.8557 20.2089C19.8557 19.8066 20.116 19.4753 20.5419 19.4753C20.9442 19.4753 21.2282 19.783 21.2282 20.2089C21.2282 20.6111 20.9442 20.9424 20.5419 20.9424C20.116 20.9187 19.8557 20.6111 19.8557 20.2089ZM13.9163 19.0257C13.2537 19.0257 12.7804 19.4989 12.7804 20.2089C12.7804 20.9188 13.2536 21.392 13.9399 21.392C14.2712 21.392 14.6025 21.2973 14.8628 21.0845L14.6261 20.7295C14.4368 20.8715 14.2002 20.9661 13.9636 20.9661C13.656 20.9661 13.3484 20.8241 13.2773 20.4217H14.9575V20.2326C14.9812 19.4989 14.5553 19.0257 13.9163 19.0257ZM13.9162 19.4516C14.2237 19.4516 14.4368 19.641 14.4841 19.996H13.3009C13.3482 19.6883 13.5612 19.4516 13.9162 19.4516ZM26.2447 20.2089V18.1738H25.7478V19.357C25.5821 19.1441 25.3455 19.0257 25.0378 19.0257C24.399 19.0257 23.902 19.5226 23.902 20.2089C23.902 20.8951 24.399 21.392 25.0378 21.392C25.3692 21.392 25.6058 21.2737 25.7478 21.0607V21.3447H26.2447V20.2089ZM24.4227 20.2089C24.4227 19.8066 24.6829 19.4753 25.1089 19.4753C25.5112 19.4753 25.7951 19.783 25.7951 20.2089C25.7951 20.6111 25.5112 20.9424 25.1089 20.9424C24.6829 20.9187 24.4227 20.6111 24.4227 20.2089ZM7.81103 20.2089V19.073H7.31411V19.357C7.14843 19.1441 6.91183 19.0257 6.60419 19.0257C5.9653 19.0257 5.46837 19.5226 5.46837 20.2089C5.46837 20.8951 5.9653 21.392 6.60419 21.392C6.93554 21.392 7.17215 21.2737 7.31411 21.0607V21.3447H7.81103V20.2089ZM5.9653 20.2089C5.9653 19.8066 6.22562 19.4753 6.65151 19.4753C7.05379 19.4753 7.33782 19.783 7.33782 20.2089C7.33782 20.6111 7.05379 20.9424 6.65151 20.9424C6.22562 20.9187 5.9653 20.6111 5.9653 20.2089Z" fill="black"/>
<path id="Vector_2" d="M10.0596 1.82227H17.5134V15.2156H10.0596V1.82227Z" fill="#FF5F00"/>
<path id="Vector_3" d="M10.5331 8.51876C10.5331 5.79753 11.8109 3.38383 13.7749 1.82202C12.3315 0.686209 10.5095 0 8.5218 0C3.81265 0 0.00292969 3.80972 0.00292969 8.51876C0.00292969 13.2277 3.81265 17.0375 8.52169 17.0375C10.5094 17.0375 12.3314 16.3513 13.7749 15.2154C11.8109 13.6773 10.5331 11.24 10.5331 8.51876Z" fill="#EB001B"/>
<path id="Vector_4" d="M27.5698 8.51876C27.5698 13.2277 23.7601 17.0375 19.051 17.0375C17.0633 17.0375 15.2413 16.3513 13.7979 15.2154C15.7856 13.6537 17.0397 11.24 17.0397 8.51876C17.0397 5.79753 15.7618 3.38383 13.7979 1.82202C15.2412 0.686209 17.0633 0 19.051 0C23.7601 0 27.5698 3.83344 27.5698 8.51876Z" fill="#F79E1B"/>
</g>
<defs>
<clipPath id="clip0_316_18870">
<rect width="27.6" height="21.4508" fill="white"/>
</clipPath>
</defs>
</svg>
