<svg width="47" height="15" viewBox="0 0 47 15" fill="none" xmlns="http://www.w3.org/2000/svg">
<path id="Vector" d="M24.3073 4.79054C24.2805 6.87808 26.1915 8.04294 27.631 8.73559C29.1101 9.44618 29.6069 9.9019 29.601 10.5374C29.59 11.51 28.4212 11.9392 27.3276 11.9559C25.4195 11.9851 24.31 11.4473 23.428 11.0405L22.7407 14.2162C23.6256 14.6188 25.2642 14.9699 26.9633 14.9854C30.9519 14.9854 33.5613 13.0414 33.5754 10.0273C33.591 6.20211 28.2167 5.99039 28.2534 4.28061C28.2661 3.76217 28.7671 3.20893 29.865 3.06826C30.4085 2.9972 31.9086 2.94282 33.6094 3.71613L34.277 0.643547C33.3623 0.314717 32.1867 -0.000155449 30.7231 -0.000155449C26.969 -0.000155449 24.3286 1.97029 24.3073 4.79054ZM40.6914 0.264503C39.963 0.264503 39.3493 0.683969 39.0754 1.32767L33.3779 14.7597H37.3635L38.1567 12.5954H43.027L43.4871 14.7597H47L43.9345 0.264503H40.6914ZM41.2489 4.18019L42.3991 9.62329H39.249L41.2489 4.18019ZM19.4749 0.264685L16.3332 14.7595H20.1312L23.2714 0.264322L19.4749 0.264685ZM13.8564 0.264685L9.90323 10.1305L8.30413 1.7417C8.1165 0.805243 7.37551 0.264503 6.55264 0.264503H0.0905117L0 0.68542C1.32665 0.969657 2.83395 1.4281 3.74715 1.91862C4.30601 2.21827 4.46537 2.48021 4.64896 3.19225L7.67771 14.7597H11.6912L17.8446 0.264503L13.8564 0.264685Z" fill="url(#paint0_linear_316_18846)"/>
<defs>
<linearGradient id="paint0_linear_316_18846" x1="2160.78" y1="45.0463" x2="2203.61" y2="-1494.02" gradientUnits="userSpaceOnUse">
<stop stop-color="#222357"/>
<stop offset="1" stop-color="#254AA5"/>
</linearGradient>
</defs>
</svg>
