<svg width="24" height="24" viewBox="0 0 24 24" fill="none" xmlns="http://www.w3.org/2000/svg">
<path d="M3.75 4.5C2.51625 4.5 1.5 5.51625 1.5 6.75V17.25C1.5 18.4838 2.51625 19.5 3.75 19.5H20.25C21.4837 19.5 22.5 18.4838 22.5 17.25V6.75C22.5 5.51625 21.4837 4.5 20.25 4.5H3.75ZM3.75 6H20.25C20.6745 6 21 6.3255 21 6.75V17.25C21 17.6745 20.6745 18 20.25 18H3.75C3.3255 18 3 17.6745 3 17.25V6.75C3 6.3255 3.3255 6 3.75 6ZM14.5545 9.28125C13.11 9.28125 12.3517 9.99375 12.3517 10.8983C12.3517 12.5332 14.2733 12.3082 14.2733 13.1483C14.2733 13.2922 14.1532 13.617 13.3597 13.617C12.5647 13.617 12.0472 13.3358 12.0472 13.3358L11.8125 14.4142C11.8125 14.4142 12.3045 14.7188 13.2892 14.7188C14.2732 14.7188 15.6562 13.9628 15.6562 12.867C15.6562 11.5485 13.734 11.4608 13.734 10.875C13.734 10.5765 13.989 10.3358 14.6715 10.3358C15.117 10.3358 15.609 10.6875 15.609 10.6875L15.8438 9.53925C15.8438 9.53925 15.1905 9.28125 14.5545 9.28125ZM8.391 9.375L7.125 13.0785C7.125 13.0785 7.0605 12.759 7.03125 12.5625C6.3165 10.9575 5.15625 10.359 5.15625 10.359L6.258 14.5545H7.758L9.867 9.375H8.391ZM10.4062 9.375L9.58575 14.5545H10.9688L11.7892 9.375H10.4062ZM17.8597 9.375L15.6097 14.5545H16.9688L17.25 13.8285H18.9847L19.125 14.5545H20.367L19.3125 9.375H17.8597ZM3.63225 9.39825C3.63225 9.39825 6.33075 10.2248 6.96075 12.258L6.492 9.91425C6.492 9.91425 6.28725 9.39825 5.742 9.39825H3.63225ZM18.375 10.875L18.7733 12.8205H17.6483L18.375 10.875Z" fill="#1E1E1E"/>
</svg>
