<svg width="24" height="24" viewBox="0 0 24 24" fill="none" xmlns="http://www.w3.org/2000/svg">
<g clip-path="url(#clip0_342_3758)">
<path d="M12.0001 2.83399C9.90189 2.83159 7.84683 3.42968 6.07762 4.55764C4.30841 5.6856 2.89894 7.2963 2.01568 9.19952C1.13241 11.1027 0.812254 13.219 1.09301 15.2983C1.37376 17.3776 2.24369 19.3332 3.60008 20.934L3.80008 21.1673H20.2001L20.4001 20.934C21.7565 19.3332 22.6264 17.3776 22.9071 15.2983C23.1879 13.219 22.8677 11.1027 21.9845 9.19952C21.1012 7.2963 19.6917 5.6856 17.9225 4.55764C16.1533 3.42968 14.0983 2.83159 12.0001 2.83399ZM17.7334 9.15399L13.7867 13.0273C13.9885 13.4538 14.0329 13.9378 13.9123 14.3939C13.7917 14.85 13.5137 15.2487 13.1276 15.5197C12.7414 15.7907 12.2719 15.9164 11.8019 15.8747C11.332 15.833 10.892 15.6265 10.5596 15.2917C10.2272 14.957 10.0238 14.5155 9.98544 14.0453C9.94704 13.5751 10.0761 13.1065 10.3498 12.7222C10.6235 12.338 11.0242 12.0628 11.4811 11.9454C11.938 11.828 12.4217 11.8759 12.8467 12.0807L16.7867 8.20732L17.7334 9.15399ZM2.40008 13.2673H4.66674V14.6007H2.37341C2.37341 14.3407 2.34008 14.0873 2.34008 13.8207C2.34008 13.554 2.35341 13.454 2.36674 13.2673H2.40008ZM5.65341 6.60066L7.29341 8.24066L6.31341 9.16066L4.66674 7.52733C4.96294 7.19076 5.28144 6.87449 5.62008 6.58066L5.65341 6.60066ZM12.6667 6.52733H11.3334V4.19399H12.0001C12.2467 4.19399 12.4667 4.19399 12.6667 4.22732V6.52733ZM21.6601 13.8273C21.6601 14.0873 21.6601 14.354 21.6267 14.6073H19.2801V13.274H21.6334C21.6467 13.454 21.6601 13.6407 21.6601 13.8273Z" fill="black"/>
</g>
<defs>
<clipPath id="clip0_342_3758">
<rect width="24" height="24" fill="white"/>
</clipPath>
</defs>
</svg>
